<?xml version="1.0" encoding="iso-8859-1"?>
<!-- Generator: Adobe Illustrator 16.0.0, SVG Export Plug-In . SVG Version: 6.00 Build 0)  -->
<!DOCTYPE svg PUBLIC "-//W3C//DTD SVG 1.1//EN" "http://www.w3.org/Graphics/SVG/1.1/DTD/svg11.dtd">

<svg version="1.1" id="Capa_1" xmlns="http://www.w3.org/2000/svg" xmlns:xlink="http://www.w3.org/1999/xlink" x="0px" y="0px"
	 width="234.989px" height="234.989px" viewBox="0 0 234.989 234.989" style="enable-background:new 0 0 234.989 234.989;"
	 xml:space="preserve">
<g>
	<path d="M144.166,61.434c12.672-23.693,51.24-48.764,51.24-48.764L201.742,0l4.409,13.498L212.766,0l1.378,18.734
		c7.163,6.608,6.064,15.427,6.064,15.427l5.786,9.643c5.787,10.743,4.682,17.629,4.682,17.629
		c-9.641,8.819-16.532-1.099-16.532-1.099c-6.059-2.755-10.196-9.091-10.196-9.091c-11.573-0.553-11.573,15.982-11.573,15.982
		l-2.205,47.115c0,0-0.981-10.368,0.254-1.108c0.089,0.635,0.195,1.368,0.302,2.204c1.644,12.944-12.129,31.683-12.129,31.683
		c-2.754,13.771-9.362,39.117-9.362,39.117c-1.644,9.368,0.556,27,0.556,27c5.509,3.588,8.263,14.044,8.263,14.044
		c0.556,4.415-5.786,2.755-5.786,2.755c4.415,2.482-0.278,4.953-0.278,4.953h-13.771c-6.064-0.272-2.199-9.091-2.199-9.091
		c-3.026-4.953,1.1-12.117,1.1-12.117l-0.544-19.837c-4.409-4.682-3.304-27.556-3.304-27.556
		c-6.343-11.018-2.755-27.272-2.755-27.272c-19.015,6.62-46.837,0.828-46.837,0.828c-2.202,11.029-16.249,23.974-16.249,23.974
		c-8.819,9.362,8.26,24.79,8.26,24.79c9.091,2.198,10.465,15.988,10.465,15.988c11.845,11.012-2.754,10.462-2.754,10.462
		c-15.427,0-11.292-7.436-11.292-7.436c-0.83-3.588,4.132-5.793,4.132-5.793c-3.032-2.754-2.208-6.886-2.208-6.886
		c-4.406-1.383-22.588-18.465-22.588-18.465c-10.193-7.164,4.413-21.208,4.413-21.208c3.576-14.328-4.965-12.956-4.965-12.956
		c-4.678,12.672-25.62,17.082-25.62,17.082c-4.135,0.827-9.091,12.117-9.091,12.117c-4.128,34.713-1.726,33.998,5.515,41.6
		c10.575,11.147-6.058,12.129-6.058,12.129c-17.083,0-8.269-11.846-8.269-11.846c3.026-4.415,1.927-6.619,1.927-6.619
		c-6.053-6.337-2.205-36.913-2.205-36.913c-3.026-17.638,9.921-21.491,9.921-21.491c14.877-6.615,11.292-18.46,11.292-18.46
		C38.934,111.279,46.1,98.048,46.1,98.048c-7.167,4.413-4.956,13.503-4.956,13.503c-11.573,42.974-36.916,34.705-36.916,34.705
		c16.529-5.503,18.181-36.916,18.181-36.916C31.229,70.77,58.229,79.58,58.229,79.58c18.734-9.362,39.118-1.1,39.118-1.1
		C130.394,82.373,144.166,61.434,144.166,61.434z" style="fill:#FFF;"/>
</g>
</svg>